<svg version="1.1" viewBox="0 0 120 120" xml:space="preserve" xmlns="http://www.w3.org/2000/svg"><path class="fill-secondary" d="m19.564 21.219c-3.5627 0-7.165 2.7731-8.0781 6.2168-0.91313 3.4437 1.2205 6.2168 4.7832 6.2168h41.324c3.5627 0 7.167-2.7731 8.0801-6.2168 0.91313-3.4437-1.2205-6.2168-4.7832-6.2168zm-3.8965 22.453c-3.5627 0-7.165 2.7711-8.0781 6.2148-0.91313 3.4437 1.2185 6.2168 4.7813 6.2168h41.326c3.5627 0 7.167-2.7731 8.0801-6.2168 0.91313-3.4437-1.2205-6.2148-4.7832-6.2148zm-4.082 22.637c-3.5627 0-7.165 2.7731-8.0781 6.2168-0.91313 3.4437 1.2185 6.2168 4.7812 6.2168h31.77c2.6205 0-4.0456-3.2548-6.1191-4.7852-2.0735-1.5303-2.6688-3.4311-1.082-5.6953 1.3678-1.9519 2.0885-1.9531 1.8262-1.9531z"/><path class="fill-primary" d="m114.31 11.555-24.387 6.0117-26.668 47.961c5.1004 3.2976 10.456 6.7747 15.473 10.197 12.536-13.264 25.348-26.83 37.977-40.197zm-71.154 51.031c-1.7319 2.3486-3.6857 5.0265-5.418 7.3887 5.4049 3.6414 11.543 7.7394 17.096 11.463-5.1434 4.8606-10.849 10.226-16.084 15.16 0.96496 0.65599 17.669 11.854 17.672 11.848 3.1195-6.4926 6.3547-13.227 9.4258-19.619l17.096 11.463c1.6453-2.2044 3.7236-5.0746 5.4199-7.3867-5.2702-3.5435-8.5189-5.7126-45.207-30.316z"/></svg>
