<svg version="1.1" viewBox="0 0 120 120" xml:space="preserve" xmlns="http://www.w3.org/2000/svg" xmlns:xlink="http://www.w3.org/1999/xlink"><path class="fill-secondary" d="m36.055 13.68a6.4705 6.4705 0 0 0-1.4883 0.34766l-18.213 6.5898a2.6849 2.6849 0 0 0-1.7324 2.0684l-11.883 68.91a1.624 1.624 0 0 0 1.2617 1.8652l60.109 12.859a4.1632 4.1632 0 0 0 2.8887-0.42968l20.697-11.477v5.9258c1.57e-4 1.5594 1.2648 2.8241 2.8242 2.8242h10.941c1.5594-1.5e-4 2.8241-1.2648 2.8242-2.8242v-28.059h10.146c2.4619-6.38e-4 3.7447-2.9318 2.0742-4.7402l-18.441-19.943c-0.4243-0.45908-0.98646-0.75244-1.5938-0.85742v-24.033a1.7702 1.7702 0 0 0-1.5469-1.7539l-57.344-7.2637a6.4705 6.4705 0 0 0-1.5254-0.0098z"/><path class="fill-primary" d="m37.342 18.088a5.855 5.855 0 0 0-1.3477 0.3125l-16.479 5.9629a2.4296 2.4296 0 0 0-1.5684 1.873l-10.752 62.357a1.4695 1.4695 0 0 0 1.1406 1.6875l54.391 11.637a3.7672 3.7672 0 0 0 2.6172-0.38867l25.176-13.961v11.359a1.4118 1.4118 0 0 0 1.4121 1.4121h8.1172a1.4118 1.4118 0 0 0 1.4121-1.4121v-28.059a1.4118 1.4118 0 0 1 1.4121-1.4121h10.146a0.61736 0.61736 0 0 0 0.45313-1.0371l-16.523-17.869a1.3056 1.3056 0 0 0-1.918 0l-3.0195 3.2656v-27.559a1.6019 1.6019 0 0 0-1.4004-1.5898l-51.887-6.5723a5.855 5.855 0 0 0-1.3828-0.0078zm51.846 11.24a1.0107 1.0107 0 0 1 0.70703 0.96094v25.816l-11.387 12.314a0.61736 0.61736 0 0 0 0.45312 1.0371h10.146a1.4118 1.4118 0 0 1 0.78711 0.24024v13.277a2.3973 2.3973 0 0 1-1.2344 2.0938l-21.695 12.031a0.76215 0.76215 0 0 1-1.127-0.72266l4.4336-59.443a2.1357 2.1357 0 0 1 1.4395-1.8652l16.848-5.7344a1.0107 1.0107 0 0 1 0.62891-0.0059z"/></svg>
