<svg version="1.1" viewBox="0 0 120 120" xml:space="preserve" xmlns="http://www.w3.org/2000/svg"><path class="fill-secondary" d="m77.939 0.58789-6.5137 15.611c-5.1977-4.7546-10.99-10.818-10.99-10.818s-13.822 11.572-19.98 15.271c-6.1585 3.6992-15.098 6.7579-20.787 6.7891-2.4257 0.01329-4.3162-0.16278-5.8105-0.35547l-8.3027-7.3223-2.459 20.455 5.3613 4.459-2.543 21.15c-1.0889 18.819 5.0192 31.374 12.855 38.916 7.8363 7.5417 21.745 13.79 27.885 15.256 6.4923-1.4663 21.905-7.7142 31.555-15.256 9.6497-7.5417 18.777-20.097 22.213-38.916l2.9141-24.238 14-10.838s0.78445-7.5597-1.4688-10.988c-2.2532-3.4286-10.904-6.7246-10.904-6.7246l-14.312 13.697c-3.9244-0.90522-8.1806-2.612-11.682-4.666l8.9531-16.885z"/><path class="fill-primary" d="m59.375 14.205s-11.692 9.7903-16.902 12.92c-5.2102 3.1296-12.775 5.7158-17.588 5.7422-1.9935 0.01087-3.547-0.12813-4.7988-0.28516l32.535 28.703 15.885-38.08c-4.3539-3.9991-9.1309-9-9.1309-9zm16.141 14.375-13.615 25.676 23.162-22.172c-4.0289-0.03191-5.2487-1.0767-9.5469-3.5039zm19.797 19.219-43.045 33.32-37.195-30.938-1.8223 15.164c-0.92122 15.922 4.2433 26.543 10.873 32.924 6.6297 6.3805 18.399 11.666 23.594 12.906 5.4927-1.2405 18.531-6.5258 26.695-12.906 8.1639-6.3805 15.884-17.002 18.791-32.924z"/></svg>
