<svg version="1.1" viewBox="0 0 120 120" xml:space="preserve" xmlns="http://www.w3.org/2000/svg"><path class="fill-secondary" d="m60 1.3672-24.604 23.191c-0.15455 0.14567-0.22478 0.35964-0.18555 0.56836l2.1094 11.223c0.02163 0.11507-0.1118 0.19436-0.20312 0.12109l-18.908-15.17c-0.09117-0.07314-0.22296 0.0063-0.20117 0.12109l8.4238 44.406c0.03283 0.17305-0.10122 0.33231-0.27734 0.33008l-15.215-0.19336c-0.12158-0.0015-0.18183 0.14664-0.09375 0.23047l18.547 17.65c0.08912 0.08481 0.02927 0.23438-0.09375 0.23438h-2.7871c-0.5647 0-1.0215 0.45874-1.0215 1.0234v11.596c0 0.5647 0.45678 1.0234 1.0215 1.0234h21.047c0.51699 0 0.89286 0.4882 0.76172 0.98828l-4.9648 18.932c-0.13114 0.50008 0.24668 0.99023 0.76367 0.99023h31.762c0.51699 0 0.89481-0.49015 0.76367-0.99023l-4.9648-18.932c-0.13114-0.50008 0.24472-0.98828 0.76172-0.98828h21.047c0.5647 0 1.0215-0.45874 1.0215-1.0234v-11.596c0-0.5647-0.45678-1.0234-1.0215-1.0234h-2.7871c-0.12302 0-0.18287-0.14957-0.09375-0.23438l18.547-17.65c0.0881-0.08382 0.0278-0.23201-0.0937-0.23047l-15.215 0.19336c-0.17612 0.0022-0.31018-0.15703-0.27734-0.33008l8.4238-44.406c0.0218-0.11484-0.11-0.19424-0.20117-0.12109l-18.908 15.17c-0.09133 0.07327-0.22475-6e-3 -0.20312-0.12109l2.1094-11.223c0.03924-0.20872-0.031-0.42269-0.18555-0.56836z"/><path class="fill-primary" d="m60 8.0742-19.031 17.787 8.1113 52.361 10.92-0.070312 10.92 0.070312 8.1113-52.361zm-32.121 78.529v8.7656h24.293l-4.7285 20.631h25.113l-4.7285-20.631h24.293v-8.7656h-32.121z"/></svg>
