<svg version="1.1" viewBox="0 0 120 120" xml:space="preserve" xmlns="http://www.w3.org/2000/svg"><path class="fill-secondary" d="m60 13.852s-10.011 9.3202-14.611 12.299c-1.9242 1.2457-4.2535 2.3863-6.6445 3.3105l-18.377-15.082 1.584 17.086v23.389l-11.619-0.88477 12.561 15.965c2.1597 11.114 7.3536 18.906 13.176 23.928 7.04 6.0727 18.846 11.104 23.932 12.285 5.0858-1.1807 16.89-6.2124 23.93-12.285 5.8218-5.0219 11.015-12.813 13.176-23.926l12.563-15.967-11.619 0.88477v-23.389l1.584-17.086-18.377 15.082c-2.391-0.92434-4.72-2.0646-6.6445-3.3105-4.6008-2.9787-14.611-12.299-14.611-12.299z"/><path class="fill-primary" d="m60 21.613s-8.3253 7.7508-12.152 10.229c-3.827 2.4777-9.5688 4.526-13.377 4.5469-3.8081 0.02089-6.1211-0.61133-6.1211-0.61133v26.324c0.78614 12.605 5.8862 21.013 11.742 26.064 5.856 5.0514 15.678 9.2386 19.908 10.221 4.2304-0.98212 14.048-5.1693 19.904-10.221 5.856-5.0514 10.96-13.459 11.746-26.064v-26.324s-2.3149 0.63222-6.123 0.61133c-3.8081-0.02089-9.548-2.0692-13.375-4.5469-3.827-2.4777-12.152-10.229-12.152-10.229zm0 19.148s2.9943 2.4396 6.9941 4.3691c3.9999 1.9295 10.752 2.0996 10.752 2.0996v14.871c0 4.9464-2.2726 10.929-6.5566 14.584-4.284 3.655-11.189 6.2734-11.189 6.2734s-6.9074-2.6184-11.191-6.2734c-4.284-3.655-6.5566-9.6376-6.5566-14.584v-14.871s6.754-0.17007 10.754-2.0996c3.9999-1.9295 6.9941-4.3691 6.9941-4.3691z"/></svg>
