<svg version="1.1" viewBox="0 0 120 120" xml:space="preserve" xmlns="http://www.w3.org/2000/svg"><path class="fill-secondary" d="m11.951 56.199c-0.28756 0.01002-0.59243 0.21587-0.65625 0.50586-0.84632 3.8454-1.8155 22.817-2.0059 26.68-0.018698 0.37947 0.14536 0.90906 0.36719 1.1816l20.162 24.775c0.52034 0.63939 0.77422 1.4718 0.7207 2.3633l-0.0957 1.6035c-0.02351 0.39166 0.25637 0.6875 0.65039 0.6875h16.238c0.38236 0 0.74559-0.30904 0.81055-0.6914l4.1523-24.445c0.16888-0.99409-0.44454-1.9871-1.3711-2.2207-6.2581-1.5781-27.921-7.0945-28.773-8.0625-0.99656-1.132-1.0224-12.432-2.7305-15.395-1.4673-2.5449-5.47-5.9988-7.1973-6.9219-0.08231-0.04399-0.17563-0.06389-0.27148-0.06055zm98.273 0c-0.0947-0.0033-0.19376 0.01656-0.29102 0.06055-2.0409 0.9231-7.2168 4.377-9.5488 6.9219-2.7146 2.9624-6.5817 14.262-7.9629 15.395-1.1811 0.96805-24.717 6.4844-31.512 8.0625-1.0059 0.23364-1.9581 1.2266-2.127 2.2207l-4.1523 24.445c-0.06496 0.38236 0.19186 0.6914 0.57422 0.6914h16.238c0.39402 0 0.7752-0.29584 0.88477-0.6875l0.44922-1.6035c0.2494-0.89153 0.78585-1.7239 1.5234-2.3633l28.58-24.775c0.31444-0.27258 0.65929-0.80217 0.76953-1.1816 1.122-3.8624 6.6003-22.834 7.0606-26.68 0.0347-0.28999-0.20218-0.49584-0.48633-0.50586z"/><path class="fill-primary" d="m60.73 6.0039-4.459 26.25h-26.25l-3.0195 17.77h26.25l-4.459 26.252h17.77l4.459-26.252h26.252l3.0176-17.77h-26.25l4.459-26.25z"/></svg>
