<svg version="1.1" viewBox="0 0 120 120" xml:space="preserve" xmlns="http://www.w3.org/2000/svg"><path class="fill-primary" d="m63.1 3.97c-2.97 0-5.7 2.39-6.13 5.36l-0.702 4.87c-0.427 2.97 1.62 5.36 4.59 5.36h12.1c2.97 0 5.7-2.39 6.13-5.36l0.702-4.87c0.427-2.97-1.62-5.36-4.59-5.36zm3.35 18.7c-23.1 0-44.5 18.2-47.7 40.6-1.19 8.5 0.418 16.8 4.58 23.7 0.0892 0.147 0.314 0.264 0.502 0.264h15.5c0.188 0 0.223-0.0796 0.0814-0.181-7.39-5.3-9.72-14.2-8.39-23.7 2.28-15.8 17.4-28.7 33.7-28.7 16.4-4.43e-4 27.8 12.8 25.5 28.7-1.37 9.51-6.19 18.4-15 23.7-0.17 0.103-0.156 0.183 0.0326 0.183h15.3c0.188 0 0.448-0.117 0.58-0.264 6.14-6.88 10.1-15.1 11.4-23.7 3.22-22.4-12.9-40.6-36.1-40.6zm-5.47 24a2.33 2.69 47.1 0 0-2.87 2.51l-2.39 16.6a2.33 2.69 47.1 0 0 2.15 2.51h11.9a2.33 2.69 47.1 0 0 2.87-2.51l0.0671-0.47a2.33 2.69 47.1 0 0-2.15-2.51h-8.93l1.96-13.6a2.33 2.69 47.1 0 0-2.15-2.51zm-16.6 46.5c-0.667 0-1.4 0.238-2.22 0.655a0.467 0.553 65.2 0 0-0.0041 0.0041c-0.783 0.409-1.56 0.908-2.31 1.49l-0.0021 0.0021c-1e-3 8.31e-4 -3e-3 0.0011-0.0041 0.0021-0.754 0.568-1.42 1.17-1.99 1.81a0.467 0.553 65.2 0 0 0 0.0021c-0.553 0.627-0.909 1.18-0.989 1.73l-1.77 12.3c-0.0782 0.543 0.117 1.08 0.486 1.63 0.362 0.544 0.83 1.05 1.4 1.53a0.467 0.553 65.2 0 0 0.0061 4e-3c0.567 0.448 1.18 0.837 1.83 1.16a0.467 0.553 65.2 0 0 0.0102 6e-3c0.674 0.314 1.32 0.488 1.95 0.488h6.39c0.667 0 1.39-0.242 2.19-0.659 0.805-0.409 1.59-0.897 2.34-1.46a0.467 0.553 65.2 0 0 0.0061-6e-3c0.756-0.587 1.41-1.19 1.95-1.81v-2e-3c0.576-0.645 0.945-1.2 1.03-1.76l1.77-12.3c0.0782-0.543-0.117-1.07-0.486-1.63-0.363-0.546-0.831-1.05-1.41-1.5-0.564-0.467-1.17-0.855-1.83-1.16-0.0017-8.23e-4 -0.0044 8.22e-4 -0.0061 0-0.67-0.334-1.31-0.523-1.95-0.523zm-17.3 0.291c-0.823 0-1.62 0.142-2.38 0.423-0.735 0.254-1.41 0.605-2.02 1.05-0.609 0.449-1.12 0.971-1.51 1.55-0.4 0.591-0.65 1.22-0.745 1.88l-1.8 12.5c-0.0782 0.543 0.115 1.08 0.484 1.63 0.361 0.544 0.827 1.05 1.4 1.53a0.467 0.553 65.2 0 0 0.0061 4e-3c0.567 0.448 1.18 0.837 1.83 1.16a0.467 0.553 65.2 0 0 0.0102 6e-3c0.673 0.314 1.32 0.488 1.95 0.488h8.01a0.467 0.553 65.2 0 0 0.604-0.484l0.448-3.1a0.467 0.553 65.2 0 0-0.466-0.484h-7.39c-0.448-0.0327-0.717-0.156-0.911-0.37-0.19-0.232-0.273-0.537-0.207-0.993l1.67-11.6c0.0729-0.507 0.235-0.719 0.488-0.852 0.355-0.187 0.713-0.277 1.12-0.277h7.13a0.467 0.553 65.2 0 0 0.606-0.484l0.445-3.1a0.467 0.553 65.2 0 0-0.466-0.484zm38 0c-0.823 0-1.62 0.142-2.38 0.423-0.735 0.254-1.41 0.605-2.02 1.05-0.609 0.449-1.12 0.971-1.51 1.55-0.399 0.59-0.65 1.22-0.745 1.88l-0.448 3.1c-0.178 1.24-0.0368 2.23 0.533 2.9a0.467 0.553 65.2 0 0 0.0102 0.0143c0.546 0.593 1.32 0.996 2.26 1.21l6.04 1.76a0.467 0.553 65.2 0 0 0.0285 8e-3c0.0232 5e-3 0.0872 0.0311 0.173 0.151a0.467 0.553 65.2 0 0 0.0366 0.0468c0.0273 0.0283 0.0811 0.136 0.0407 0.417l-0.332 2.31c-0.0075 0.0524-0.0502 0.164-0.189 0.328a0.467 0.553 65.2 0 0-0.0081 0.0122c-0.126 0.156-0.298 0.321-0.513 0.492-0.187 0.149-0.389 0.281-0.614 0.401-0.164 0.0794-0.275 0.102-0.309 0.102h-8.11a0.467 0.553 65.2 0 0-0.604 0.484l-0.448 3.1a0.467 0.553 65.2 0 0 0.466 0.484h9.31c0.613 0 1.28-0.207 2.01-0.566 0.715-0.352 1.39-0.785 2.04-1.3 0.669-0.517 1.25-1.08 1.73-1.69 0.51-0.616 0.835-1.23 0.921-1.83l0.476-3.31c0.0337-0.235 0.0441-0.485 0.0386-0.749 0.02-0.329-0.0284-0.646-0.138-0.946-0.118-0.323-0.335-0.612-0.625-0.862-0.31-0.291-0.726-0.506-1.23-0.657l-6.81-2.05a0.467 0.553 65.2 0 0-0.0122-4e-3c-0.236-0.0632-0.367-0.145-0.421-0.201-0.0062-7e-3 -0.0574-0.0885-0.0224-0.332l0.366-2.55c0.0729-0.507 0.237-0.719 0.49-0.852 0.356-0.188 0.711-0.277 1.11-0.277h7.39a0.467 0.553 65.2 0 0 0.604-0.484l0.448-3.1a0.467 0.553 65.2 0 0-0.466-0.484zm11 0a0.467 0.553 65.2 0 0-0.604 0.484l-0.448 3.1a0.467 0.553 65.2 0 0 0.466 0.484h5.76l-2.54 17.7a0.467 0.553 65.2 0 0 0.466 0.484h4.6a0.467 0.553 65.2 0 0 0.604-0.484l2.54-17.7h5.76a0.467 0.553 65.2 0 0 0.604-0.484l0.445-3.1a0.467 0.553 65.2 0 0-0.464-0.484zm-31.1 3.78h4.57c0.497 0 0.783 0.114 0.989 0.344a0.467 0.553 65.2 0 0 0.0102 0.0122c0.226 0.235 0.318 0.535 0.25 1.01l-1.59 11.1c-0.0122 0.0852-0.0941 0.287-0.301 0.557-0.215 0.28-0.473 0.554-0.773 0.826a0.467 0.553 65.2 0 0-0.0021 2e-3c-0.27 0.247-0.553 0.466-0.848 0.657-0.27 0.158-0.45 0.199-0.49 0.199h-4.25c-0.496 0-0.886-0.126-1.23-0.397h-0.0021c-0.297-0.247-0.402-0.52-0.338-0.964l1.59-11.1c0.0117-0.0815 0.0941-0.283 0.303-0.555 0.218-0.285 0.463-0.549 0.734-0.797l0.0021-0.0041c0.294-0.266 0.588-0.481 0.877-0.651a0.467 0.553 65.2 0 0 0.0204-0.0143c0.281-0.181 0.459-0.218 0.478-0.218z"/></svg>
