<svg version="1.1" viewBox="0 0 120 120" xml:space="preserve" xmlns="http://www.w3.org/2000/svg"><path class="fill-primary" d="m64.551 6.2059c-2.858 0-5.5645 2.3016-6.0703 5.1596l-0.83146 4.6908c-0.50584 2.858 1.3889 5.1576 4.2469 5.1576h11.628c2.858 0 5.5665-2.2995 6.0724-5.1576l0.82938-4.6908c0.50584-2.858-1.3868-5.1596-4.2448-5.1596zm2.6319 17.992c-22.271 0-43.42 17.484-47.237 39.052-1.4133 8.1847-0.13304 16.148 3.6551 22.768 0.08121 0.14193 0.29406 0.25632 0.47512 0.25632h14.91c0.18106 0 0.21853-0.07737 0.08544-0.17504-6.9469-5.0982-8.9057-13.66-7.3164-22.85 2.6989-15.251 17.654-27.616 33.402-27.615 15.749-4.25e-4 26.329 12.364 23.629 27.615-1.6212 9.1587-6.5436 17.713-15.237 22.847-0.16712 0.09871-0.15606 0.17713 0.02501 0.17713h14.739c0.18107 0 0.43536-0.11439 0.56681-0.25632 6.1317-6.6205 10.232-14.584 11.715-22.768 3.8172-21.568-11.142-39.052-33.413-39.052zm-6.037 23.148a2.2088 2.6359 47.529 0 0-2.8382 2.4131l-2.8299 15.985a2.2088 2.6359 47.529 0 0 1.9859 2.4131h11.461a2.2088 2.6359 47.529 0 0 2.8403-2.4131l0.07919-0.4522a2.2088 2.6359 47.529 0 0-1.9859-2.4131h-8.5959l2.3214-13.12a2.2088 2.6359 47.529 0 0-1.9838-2.4131zm-32.61 45.109c-0.66109 0.0029-1.4503 0.02357-1.9922 0.13128-2.5332 0.50351-4.7882 2.4197-5.7244 4.8637-0.26704 0.69719-0.45938 1.8585-0.58557 2.5715l-1.0982 6.2058c-0.12619 0.713-0.34532 1.8765-0.32508 2.5736 0.07094 2.4441 1.6482 4.3602 4.0031 4.8638 0.67176 0.14364 1.8377 0.12919 2.5506 0.12919h4.6637a1.1818 1.4103 47.529 0 0 1.5191-1.2899l0.31675-1.7838a1.1818 1.4103 47.529 0 0-1.0628-1.2899h-3.6947c-0.71299 0-1.9408 0.0191-2.4152-0.41261-0.10613-0.0965-0.19822-0.20811-0.27299-0.33133-0.33426-0.55083-0.09702-1.7752 0.02917-2.4881l1.0878-6.1474c0.12619-0.71299 0.32255-1.94 0.8523-2.4902 0.11808-0.12265 0.2498-0.2331 0.38968-0.32925 0.62753-0.43134 1.8481-0.41052 2.5611-0.41052h3.6947a1.1818 1.4103 47.529 0 0 1.5191-1.292l0.31675-1.7817a1.1818 1.4103 47.529 0 0-1.0628-1.292h-4.6658c-0.17825 0-0.38396-9.66e-4 -0.60432 0zm16.15 0c-0.66109 0.0029-1.4482 0.02357-1.9901 0.13128-2.5332 0.50351-4.7882 2.4197-5.7244 4.8637-0.26704 0.69719-0.45938 1.8585-0.58557 2.5715l-1.0982 6.2058c-0.12619 0.713-0.34532 1.8765-0.32508 2.5736 0.07094 2.4441 1.6461 4.3602 4.001 4.8638 0.67176 0.14363 1.8377 0.12919 2.5507 0.12919h1.8005c0.71299 0 1.8718 0.0144 2.5944-0.12919 2.5332-0.50357 4.7904-2.4197 5.7265-4.8638 0.267-0.69712 0.45729-1.8606 0.58348-2.5736l1.0982-6.2058c0.12619-0.71298 0.34742-1.8743 0.32717-2.5715-0.07099-2.4441-1.6482-4.3602-4.0031-4.8637-0.6717-0.14362-1.8377-0.13128-2.5507-0.13128h-1.7984c-0.17825 0-0.38604-9.66e-4 -0.60641 0zm19.549 0c-3.4768 0-6.2468 1.4432-6.8622 4.92l-0.29382 1.6567c-0.45547 3.0913 1.111 5.2683 3.7322 6.0286 0.65307 0.18944 1.7234 0.47275 2.2068 0.91066 0.37752 0.34197 0.69919 0.78846 0.61266 1.2774l-0.1417 0.8002c-0.1902 1.0747-0.82582 1.3816-1.9005 1.3816h-4.9846a1.1818 1.4103 47.529 0 0-1.5191 1.2899l-0.31675 1.7838a1.1818 1.4103 47.529 0 0 1.0628 1.2899h5.9557c3.4768 0 6.2468-1.4411 6.8622-4.9179l0.29382-1.6567c0.46594-3.0657-1.0097-5.2599-3.603-6.0265-0.65154-0.19262-1.727-0.46454-2.2339-0.87731-0.4254-0.34644-0.80447-0.80811-0.71477-1.3149l0.1417-0.79812c0.1902-1.0747 0.82582-1.3816 1.9005-1.3816h4.9846a1.1818 1.4103 47.529 0 0 1.5191-1.292l0.31675-1.7817a1.1818 1.4103 47.529 0 0-1.0628-1.292zm10.797 0a1.1818 1.4103 47.529 0 0-1.5191 1.292l-0.31675 1.7817a1.1818 1.4103 47.529 0 0 1.0628 1.292h3.4488a1.1818 1.4103 47.529 0 1 1.0628 1.2899l-2.5465 14.393a1.1818 1.4103 47.529 0 0 1.0628 1.2899h2.3006a1.1818 1.4103 47.529 0 0 1.5191-1.2899l2.5465-14.393a1.1818 1.4103 47.529 0 1 1.5191-1.2899h3.4488a1.1818 1.4103 47.529 0 0 1.5212-1.292l0.31466-1.7817a1.1818 1.4103 47.529 0 0-1.0628-1.292h-8.0729zm-29.864 4.3657h0.50221c0.71299 0 1.9424-0.02082 2.4173 0.41052 0.10585 0.09615 0.19624 0.2066 0.2709 0.32925 0.33497 0.55026 0.0991 1.7772-0.02709 2.4902l-1.0878 6.1474c-0.12619 0.71298-0.32306 1.9373-0.8523 2.4881-0.11839 0.12322-0.24937 0.23474-0.38968 0.33133-0.62723 0.43172-1.8502 0.4126-2.5632 0.41261h-0.50221c-0.71299 0-1.9429 0.0191-2.4173-0.41261-0.10613-0.0965-0.19613-0.20811-0.2709-0.33133-0.33426-0.55083-0.0991-1.7752 0.02709-2.4881l1.0878-6.1474c0.12619-0.71299 0.32464-1.94 0.85438-2.4902 0.11808-0.12265 0.24772-0.2331 0.3876-0.32925 0.62753-0.43134 1.8502-0.41052 2.5632-0.41052z"/></svg>
